<svg width="23" height="34" viewBox="0 0 23 34" fill="none" xmlns="http://www.w3.org/2000/svg">
<path fill-rule="evenodd" clip-rule="evenodd" d="M13.8939 14.1834C14.5763 13.6165 14.8342 13.1418 14.4475 12.303C14.12 12.9605 13.7139 13.3818 13.8939 14.1834ZM8.99885 11.9406C8.48637 13.1526 8.92175 13.9888 10.1815 14.3304C10.0316 13.4537 9.84447 12.6251 8.99885 11.9406ZM12.3074 31.4009C12.6941 31.4002 13.0878 31.441 13.4664 31.3914C14.5576 31.2468 15.5108 30.8433 16.2363 30.0848C16.3663 29.9476 16.4936 29.76 16.3354 29.5679C16.1843 29.3832 15.9741 29.4031 15.7606 29.4801C15.2786 29.6554 14.7734 29.7647 14.2573 29.7706C12.8006 29.7887 11.3352 29.9421 9.89455 29.6343C9.3409 29.5163 9.10633 29.6846 9.04271 30.177C8.9449 30.9237 9.00272 30.9937 9.95864 31.0229C10.1263 31.0275 10.3346 31.0182 10.4527 31.0986C11.0184 31.4798 11.677 31.3792 12.3074 31.4009ZM12.0963 18.1834C12.0948 17.5388 12.0961 16.8934 12.0903 16.2486C12.0882 16.058 12.0726 15.8387 11.78 15.8466C11.5228 15.8545 11.4417 16.051 11.4155 16.2466C11.3955 16.3966 11.3834 16.5499 11.3988 16.6998C11.5228 17.9099 11.4262 19.1187 11.3277 20.3242C11.2042 21.8371 11.0124 23.3461 10.8667 24.8582C10.8414 25.1068 10.6622 25.4315 10.9782 25.5971C11.3999 25.8189 11.9017 25.7545 12.3518 25.659C12.7427 25.5761 12.624 25.2332 12.6191 24.9846C12.6111 24.5681 12.6021 24.1492 12.5374 23.7378C12.2497 21.8948 12.1623 20.0375 12.0963 18.1834ZM16.7966 27.171C14.6901 26.4968 12.6756 26.5689 10.6657 26.623C10.155 26.6362 9.65961 26.7683 9.19424 26.4358C8.83809 26.1831 8.53358 26.393 8.33282 26.6591C7.90579 27.2287 8.08712 27.8258 8.74584 28.2174C9.43749 28.6286 10.1882 28.8864 11.0217 28.893C12.0928 28.9008 13.1684 28.9217 14.2358 28.8472C15.4309 28.7635 16.2384 28.1451 16.7966 27.171ZM13.1523 18.5785C13.2891 20.7502 13.8426 22.8788 13.928 25.0482C13.9543 25.7124 14.4447 25.7433 14.9714 25.77C15.5469 25.7991 16.1757 25.4564 16.2395 25.0464C16.2929 24.709 16.247 24.361 16.2658 24.0186C16.3358 22.7651 16.3561 21.4969 16.9058 20.3157C17.4461 19.1542 18.2125 18.0892 18.8432 16.9666C19.9103 15.0665 21.0962 13.2192 21.62 11.0951C22.3681 8.05784 21.202 5.52689 18.878 3.50023C16.2785 1.23183 12.9783 0.412361 9.35878 1.20374C4.48777 2.27049 1.33238 5.72698 1.4216 10.1336C1.46324 12.1775 2.0616 14.1064 3.53883 15.772C4.20283 16.5214 4.958 17.1965 5.62898 17.9361C6.45922 18.8515 7.51078 19.6572 7.9663 20.7795C8.4718 22.0247 8.94622 23.3082 8.73377 24.6795C8.72241 24.7546 8.71986 24.8319 8.72363 24.9077C8.73292 25.1229 8.85125 25.2775 9.10039 25.286C9.28837 25.293 9.4149 25.173 9.45272 25.0082C9.55722 24.5615 9.69017 24.1162 9.74511 23.6638C10.0055 21.5044 10.2039 19.3434 10.2382 17.1673C10.2539 16.1901 10.2317 15.3605 9.03111 14.9388C8.7648 14.8456 8.54796 14.6219 8.33476 14.4347C7.18784 13.4181 7.04598 12.5822 7.79789 11.3583C8.18229 10.73 8.68114 10.58 9.38943 10.8949C9.74171 11.0507 10.0118 11.2866 10.2084 11.6C10.7308 12.4345 11.2646 13.2615 11.3544 14.2442C11.3763 14.4953 11.5194 14.6686 11.8387 14.681C12.1562 14.6943 12.3003 14.5377 12.3672 14.2873C12.4464 13.9912 12.5255 13.6945 12.6189 13.4025C12.8065 12.8162 12.9719 12.2225 13.2083 11.6524C13.382 11.2357 13.7326 10.9604 14.2957 10.9953C14.8056 11.0269 15.2103 11.1859 15.4144 11.6354C15.573 11.9896 15.7289 12.3357 15.7554 12.7285C15.8279 13.8017 15.2779 14.5484 14.2727 15.0817C13.8715 15.2934 13.401 15.4558 13.3603 15.9603C13.2896 16.8333 13.2213 17.7054 13.1523 18.5785ZM22.9977 10.1097C22.8758 11.1449 22.4624 12.6641 21.7526 14.1626C20.6546 16.4824 18.9992 18.554 18.0449 20.9282C17.4222 22.4778 17.5774 24.0839 17.5754 25.6805C18.3632 26.6725 18.0946 27.5826 17.3367 28.4829C17.121 28.7392 17.438 28.9807 17.5591 29.2111C17.8005 29.6744 17.7587 30.0845 17.3659 30.4731C16.5969 31.2349 15.8716 32.0293 15.1568 32.8317C14.6642 33.3844 13.8425 33.9148 12.8823 33.9883C12.1226 34.0459 11.4261 33.8931 10.8144 33.4843C10.6101 33.3477 10.3403 33.2105 10.2591 33.0208C9.94105 32.2724 9.36203 31.8789 8.47949 31.7412C7.98535 31.6647 7.80996 31.304 7.85774 30.8695C7.89254 30.5662 7.91947 30.2613 7.9622 29.9597C8.04873 29.3736 8.04402 28.8601 7.3728 28.4644C6.80646 28.1313 6.82551 27.5469 6.95388 27.0031C7.10319 26.3704 7.367 25.7481 7.42241 25.1114C7.59893 23.072 7.09738 21.2097 5.61219 19.558C4.62198 18.4554 3.4256 17.5221 2.48415 16.3852C0.912326 14.4875 -0.0055864 12.3358 2.55843e-05 10.0221C0.0038455 8.49881 0.438467 6.93153 1.36921 5.56308C2.00558 4.62554 2.43246 3.54726 3.44441 2.84782C6.78231 0.541837 10.368 -0.745941 14.7039 0.462166C16.6389 1.00135 18.4174 1.69091 19.7761 3.02992C21.6519 4.87899 23.0653 6.93352 22.9977 10.1097Z" fill="#72FA9D"/>
</svg>
